<?xml version="1.0" encoding="utf-8"?>
<!DOCTYPE svg PUBLIC "-//W3C//DTD SVG 1.1//EN" "http://www.w3.org/Graphics/SVG/1.1/DTD/svg11.dtd">
<svg version="1.1" id="Layer_2" xmlns="http://www.w3.org/2000/svg" xmlns:xlink="http://www.w3.org/1999/xlink" x="0" y="0" width="420" height="420" viewBox="0 0 420 420">
<style type="text/css">
	.st0{fill:url(#SVGID_1_);}
	.st1{fill:url(#SVGID_2_);stroke:#333;}
	.st2{fill:#E8B847;}
	.st3{fill:url(#SVGID_3_);stroke:#4D4D4D;}
	.st4{fill:url(#SVGID_4_);stroke:#4D4D4D;}
	.st5{fill:#B3B3B3;stroke:#666;}
	.st6{fill:url(#SVGID_5_);stroke:#4D4D4D;}
	.st7{fill:url(#SVGID_6_);stroke:#4D4D4D;}
	.st8{fill:#C1272D;stroke:#333;}
	.st9{fill:#B3B3B3;stroke:#333;}
	.st10{fill:#5F5993;stroke:#000;stroke-linejoin:round;}
	.st11{fill:#C1272D;}
	.st12{fill:#B8A064;}
	.st13{fill:#C1272D;stroke:#000;stroke-width:0.5;}
	.st14{fill:#C1272D;stroke:#000;stroke-linejoin:round;}
	.st15{fill:url(#SVGID_7_);stroke:#4D4D4D;stroke-width:0.5;}
	.st16{fill:url(#SVGID_8_);stroke:#4D4D4D;stroke-width:0.5;}
	.st17{fill:#B3B3B3;stroke:#666;stroke-width:0.5;}
</style>
<radialGradient id="SVGID_1_" cx="249.0218" cy="8.7169" r="165.3862" gradientUnits="userSpaceOnUse">
	<stop  offset="0" style="stop-color:#E8B847"/>
	<stop  offset="1" style="stop-color:#B8A064"/>
</radialGradient>
<circle class="st0" cx="278.1" cy="85.4" r="79.5"/>
<radialGradient id="SVGID_2_" cx="100.4324" cy="145.2613" r="270.6395" gradientUnits="userSpaceOnUse">
	<stop  offset="0" style="stop-color:#E8B847"/>
	<stop  offset="1" style="stop-color:#B8A064"/>
</radialGradient>
<polygon class="st1" points="204.4,143.1 204.4,154.9 97.7,140.6 106,148.9 20.5,214.2 32.2,214.2 17.9,321 26.2,312.6 91.6,398.2 
	91.6,386.4 198.3,400.8 190,392.4 275.5,327.1 263.8,327.1 278.1,220.4 269.8,228.7 "/>
<path class="st2" d="M199.8,347.1c-2.6-4-18.3-28.2-22.9-35.5c-0.7-1.1-0.4-2.6,0.7-3.3c5.1-3.6,18.9-13,24.9-13.1
	c6.4-0.1,31.7,3.4,36.1-7c-4.6-1-32.9-7-41.3-8.9c-1.3-0.3-2.1-1.5-1.9-2.8c1.1-6.1,4.2-22.5,8.4-26.8c4.5-4.6,24.8-20,20.6-30.5
	c-4,2.6-28.2,18.3-35.5,22.9c-1.1,0.7-2.6,0.4-3.3-0.7c-3.6-5.1-13-18.9-13.1-24.9c-0.1-6.4,3.4-31.7-7-36.1c-1,4.6-7,32.9-8.9,41.3
	c-0.3,1.3-1.5,2.1-2.8,1.9c-6.1-1.1-22.5-4.2-26.8-8.4c-4.6-4.5-20-24.8-30.5-20.6c2.6,4,18.3,28.2,22.9,35.5
	c0.7,1.1,0.4,2.6-0.7,3.3c-5.1,3.6-18.9,13-24.9,13.1c-6.4,0.1-31.7-3.4-36.1,7c4.6,1,32.9,7,41.3,8.9c1.3,0.3,2.1,1.5,1.9,2.8
	c-1.1,6.1-4.2,22.5-8.4,26.8c-4.5,4.6-24.8,20-20.6,30.5c4-2.6,28.2-18.3,35.5-22.9c1.1-0.7,2.6-0.4,3.3,0.7
	c3.6,5.1,13,18.9,13.1,24.9c0.1,6.4-3.4,31.7,7,36.1c1-4.6,7-32.9,8.9-41.3c0.3-1.3,1.5-2.1,2.8-1.9c6.1,1.1,22.5,4.2,26.8,8.4
	C173.9,330.9,189.3,351.2,199.8,347.1"/>
<g>
	<radialGradient id="SVGID_3_" cx="158.6667" cy="283.0002" r="34.0018" gradientUnits="userSpaceOnUse">
		<stop  offset="0" style="stop-color:#ccc"/>
		<stop  offset="1" style="stop-color:#666"/>
	</radialGradient>
	<path class="st3" d="M148.2,288.7c-9.8,0-17.8-8-17.8-17.8c0-9.8,8-17.8,17.8-17.8c9.8,0,17.8,8,17.8,17.8
		C166,280.7,158,288.7,148.2,288.7z"/>
	<radialGradient id="SVGID_4_" cx="143.8334" cy="266.3335" r="16.3714" gradientUnits="userSpaceOnUse">
		<stop  offset="0" style="stop-color:#ccc"/>
		<stop  offset="1" style="stop-color:#666"/>
	</radialGradient>
	<path class="st4" d="M148.2,281.7c-6,0-10.8-4.9-10.8-10.8s4.9-10.8,10.8-10.8c6,0,10.8,4.9,10.8,10.8S154.1,281.7,148.2,281.7z"/>
	<circle class="st5" cx="148.2" cy="270.8" r="2.8"/>
</g>
<g>
	<radialGradient id="SVGID_5_" cx="288.5901" cy="97.5182" r="34.0018" gradientUnits="userSpaceOnUse">
		<stop  offset="0" style="stop-color:#ccc"/>
		<stop  offset="1" style="stop-color:#666"/>
	</radialGradient>
	<path class="st6" d="M278.1,103.2c-9.8,0-17.8-8-17.8-17.8c0-9.8,8-17.8,17.8-17.8c9.8,0,17.8,8,17.8,17.8
		C295.9,95.2,287.9,103.2,278.1,103.2z"/>
	<radialGradient id="SVGID_6_" cx="273.7568" cy="80.8515" r="16.3714" gradientUnits="userSpaceOnUse">
		<stop  offset="0" style="stop-color:#ccc"/>
		<stop  offset="1" style="stop-color:#666"/>
	</radialGradient>
	<path class="st7" d="M278.1,96.2c-6,0-10.8-4.9-10.8-10.8s4.9-10.8,10.8-10.8c6,0,10.8,4.9,10.8,10.8S284.1,96.2,278.1,96.2z"/>
	<circle class="st5" cx="278.1" cy="85.4" r="2.8"/>
</g>
<polygon class="st8" points="224.3,110.5 232.1,118.3 202.6,138.9 199.8,127.8 "/>
<circle class="st9" cx="379" cy="241.1" r="6.5"/>
<circle class="st9" cx="379" cy="290.4" r="6.5"/>
<path class="st10" d="M400.4,243l-59.9,13.8c-2.1-2.2-4.9-3.8-8-4.3l-44.1-79.7c2.2-3.5,3.4-8.4,3.4-14.4c0-4.5-0.8-8.6-2.1-12.2
	c-0.2,7.1-3.6,13.4-8.8,17.5l2.4,5.1l-7.7,4.1l-2.8-5.1c-2,0.6-4.1,0.9-6.3,0.9c-4.9,0-9.4-1.5-13.1-4.1
	c2.2,9.8,14.2,13.9,21.9,14.5c1.5,1.2,2.9,3.3,2.9,4.8c0,3.2-6.1,7.5-8.7,9.6c-0.7,0.6-1.1,1.4-1.1,2.3v13.5l-3.6,5.2l6.9,10.2
	l5.7-8.2l3.2,3.3l8.5-7.7c1.6-1.6,4.2-1.2,5.2,0.7l24,44.8c-1.2,1.5-2.1,3.2-2.7,5L286,270c-1.2-1.1-2.7-2.1-4.4-2.8
	c-6.7-2.8-14.2-0.4-16.8,5.3c-2.6,5.7,0.8,12.6,7.5,15.4c5.7,2.3,11.9,1,15.2-2.9l31.7-7.8c1,1,2.2,1.9,3.4,2.6l-21.9,110.2
	c-1.7,6.8,6.9,18.9,18.8,12.7l19-124c2.4-1.8,4.3-4.4,5.2-7.3l59.7-13.8c0,0,0,0,0,0c0.2-1.1,0.3-2.3,0.3-3.5
	C403.8,249.9,402.5,246.1,400.4,243z"/>
<polygon class="st11" points="278.1,196.4 265.5,214.5 271.8,223.9 287.5,201.2 "/>
<path class="st12" d="M291.3,158.2c0-2.5,0-3.9-1.2-9.6c-1.4,6.9-3.2,10.3-8.5,15.1l0.5,1c3.3-0.1,5.5-0.3,8.8-0.9
	C291.1,162.2,291.3,160.1,291.3,158.2z"/>
<ellipse transform="matrix(0.9987 5.167851e-002 -5.167851e-002 0.9987 8.8594 -13.9429)" class="st13" cx="274" cy="164.3" rx="5.4" ry="2.4"/>
<polyline class="st14" points="313.8,384.8 292.8,380.8 285.8,391.1 311.9,395.4 "/>
<g>
	<radialGradient id="SVGID_7_" cx="333.7854" cy="271.7159" r="12.9207" gradientUnits="userSpaceOnUse">
		<stop  offset="0" style="stop-color:#ccc"/>
		<stop  offset="1" style="stop-color:#666"/>
	</radialGradient>
	<path class="st15" d="M329.8,273.9c-3.7,0-6.8-3-6.8-6.8c0-3.7,3-6.8,6.8-6.8c3.7,0,6.8,3,6.8,6.8
		C336.6,270.8,333.5,273.9,329.8,273.9z"/>
	<radialGradient id="SVGID_8_" cx="328.1487" cy="265.3826" r="6.2211" gradientUnits="userSpaceOnUse">
		<stop  offset="0" style="stop-color:#ccc"/>
		<stop  offset="1" style="stop-color:#666"/>
	</radialGradient>
	<path class="st16" d="M329.8,271.2c-2.3,0-4.1-1.8-4.1-4.1s1.8-4.1,4.1-4.1c2.3,0,4.1,1.8,4.1,4.1S332.1,271.2,329.8,271.2z"/>
	<circle class="st17" cx="329.8" cy="267.1" r="1.1"/>
</g>
<polygon class="st11" points="273.6,284.3 241.2,289.7 241.8,278.6 273,273.9 "/>
</svg>
