<?xml version="1.0" encoding="utf-8"?>
<!-- Generator: Adobe Illustrator 23.0.1, SVG Export Plug-In . SVG Version: 6.00 Build 0)  -->
<svg version="1.1" id="Layer_1" xmlns="http://www.w3.org/2000/svg" xmlns:xlink="http://www.w3.org/1999/xlink" x="0px" y="0px"
	 viewBox="0 0 498.9 133" style="enable-background:new 0 0 498.9 133;" xml:space="preserve">
<g>
	<path d="M430.6,104.5c0-6.6,0-19.1,24.1-19.1c24.1,0,24.1,12.5,24.1,19.1v20.8H472v-19.2c0-6.7,0-14.6-17.2-14.6
		c-17.2,0-17.2,7.9-17.2,14.6v19.2h-6.9V104.5L430.6,104.5z M390.7,120.3h0.7c8.1,0,19.4-2,19.4-14.4c0-12.4-11.3-14.4-19.4-14.4
		h-0.7c-8,0-19.4,2-19.4,14.4C371.3,118.3,382.7,120.3,390.7,120.3L390.7,120.3z M390.7,85.4h0.7c12.9,0,26.3,4.9,26.3,20.5
		c0,15.6-13.5,20.5-26.3,20.5h-0.7c-12.9,0-26.3-4.9-26.3-20.5C364.4,90.3,377.8,85.4,390.7,85.4L390.7,85.4z M304.9,86.5h53.6v6.1
		h-23.4v32.7h-6.9V92.6h-23.4V86.5L304.9,86.5z M272.7,86.5h6.9v32.7h30.2v6.1h-37.1V86.5L272.7,86.5z M246,86.5h6.9v38.7H246V86.5
		L246,86.5z M231.6,67.1V42.7l-22.8-9h22.8V9L243,33.8h12.8L267.3,9v24.7h22.8l-22.8,9v24.4L256.6,44h-14.3L231.6,67.1L231.6,67.1z
		 M156.8,105.7c0-11.6,1.4-20.3,19.5-20.3c9.5,0,14.1,2.9,16.3,7.7c2.2-4.8,6.8-7.7,16.2-7.7c18.2,0,19.5,8.7,19.5,20.3v19.5h-6.9
		v-19.4c0-10.7-2.1-14.4-12.8-14.4c-10.6,0-12.6,3.7-12.6,14.4v19.4h-6.9v-19.4c0-10.7-2-14.4-12.6-14.4c-10.7,0-12.8,3.7-12.8,14.4
		v19.4h-6.9V105.7L156.8,105.7z M133.8,106.6v-2.1c0-7.2,0-13-18.1-13c-18.1,0-18.1,5.8-18.1,13v2.1H133.8L133.8,106.6z M90.7,104.6
		c0-9.4,0.6-19.2,25-19.2c24.5,0,25,9.8,25,19.2v20.6h-6.9v-12.6H97.6v12.6h-6.9V104.6L90.7,104.6z M20,86.5h6.9v16h39.2v-16h6.9
		v38.7h-6.9v-16.7H26.9v16.7H20V86.5L20,86.5z"/>
</g>
</svg>
